{"title":"In.Her.Skin.2009 DVDRip.XviD.SBT","uid":6487878,"size":734841234,"categoryP":"video","categoryS":"movies","magnet":"?xt=urn:btih:567b0f7bb65823126e7e48dca5553001bab46617&amp;dn=In.Her.Skin.2009+DVDRip.XviD.SBT&amp;tr=udp%3A%2F%2Ftracker.openbittorrent.com%3A80&amp;tr=udp%3A%2F%2Fopen.demonii.com%3A1337&amp;tr=udp%3A%2F%2Ftracker.coppersurfer.tk%3A6969&amp;tr=udp%3A%2F%2Fexodus.desync.com%3A6969","seeders":0,"leechers":1,"uploader":"Test_Verify","files":4,"time":1308772034,"description":" IMDB.....: &lt;a href=&quot; http://www.imdb.com/title/tt0995851/&quot; rel=&quot;nofollow&quot; target=&quot;_NEW&quot;&gt; http://www.imdb.com/title/tt0995851/&lt;/a&gt;\n Youtube..: \n Subtitles:  English. \n\n            -=-=-=-=-R E L E A s E/i N F O-=-=-=-=-\n   General\n      Complete name : In.Her.Skin.2009 DVDRip.XviD.SBT.avi\n      Format : AVI\n      Format/Info : Audio Video Interleave\n      File size : 701 MiB\n      Duration : 1h 48mn\n      Overall bit rate : 906 Kbps\n      Writing application : VirtualDubMod 1.5.10.2 (build 2540/release)\n      Writing library : VirtualDubMod build 2540/release.\n   Video #0\n      ID : 0\n      Format : MPEG-4 Visual\n      Format profile : AdvancedSimple@L5\n      Format settings, BVOP : Yes\n      Format settings, QPel : No\n      Format settings, GMC : No warppoints\n      Format settings, Matrix : Default (H.263)\n      Muxing mode : Packed bitstream\n      Codec ID : XVID\n      Codec ID/Hint : XviD\n      Duration : 1h 48mn\n      Bit rate : 760 Kbps\n      Width : 576 pixels\n      Height : 240 pixels\n      Display aspect ratio : 2.40:1\n      Frame rate : 23.976 fps\n      Resolution : 24 bits\n      Colorimetry : 4:2:0\n      Scan type : Progressive\n      Bits/(Pixel*Frame) : 0.229\n      Stream size : 588 MiB (84%)\n      Writing library : XviD 61.\n   Audio #1\n      ID : 1\n      Format : MPEG Audio\n      Format version : Version 1\n      Format profile : Layer 3\n      Codec ID : 55\n      Codec ID/Hint : MP3\n      Duration : 1h 48mn\n      Bit rate mode : Variable\n      Bit rate : 133 Kbps\n      Minimum bit rate : 128 Kbps\n      Channel(s) : 2 channels\n      Sampling rate : 48.0 KHz\n      Resolution : 16 bits\n      Stream size : 103 MiB (15%)\n      Alignment : Aligned on interleaves\n      Interleave, duration : 24 ms (0.58 video frame)\n      Interleave, preload duration : 138 ms\n      Writing library : LAME3.95 \n      Encoding settings : -m j -V 4 -q 3 -lowpass 18 --vbr-old -b 128.","torrent":{"xt":"urn:btih:567b0f7bb65823126e7e48dca5553001bab46617","amp;dn":"In.Her.Skin.2009+DVDRip.XviD.SBT","amp;tr":["udp%3A%2F%2Ftracker.openbittorrent.com%3A80","udp%3A%2F%2Fopen.demonii.com%3A1337","udp%3A%2F%2Ftracker.coppersurfer.tk%3A6969","udp%3A%2F%2Fexodus.desync.com%3A6969"],"infoHash":"567b0f7bb65823126e7e48dca5553001bab46617","infoHashBuffer":{"type":"Buffer","data":[86,123,15,123,182,88,35,18,110,126,72,220,165,85,48,1,186,180,102,23]},"announce":[],"urlList":[]}}